<?xml version="1.0" encoding="UTF-8" standalone="no"?>
<svg
   width="410.1351"
   height="410.1351"
   viewBox="0 0 108.51491 108.51491"
   version="1.1"
   id="svg1"
   xml:space="preserve"
   sodipodi:docname="icon.svg"
   inkscape:version="1.3.2 (091e20e, 2023-11-25, custom)"
   inkscape:export-filename="icon.png"
   inkscape:export-xdpi="96"
   inkscape:export-ydpi="96"
   xmlns:inkscape="http://www.inkscape.org/namespaces/inkscape"
   xmlns:sodipodi="http://sodipodi.sourceforge.net/DTD/sodipodi-0.dtd"
   xmlns="http://www.w3.org/2000/svg"
   xmlns:svg="http://www.w3.org/2000/svg"><sodipodi:namedview
     id="namedview1"
     pagecolor="#000000"
     bordercolor="#000000"
     borderopacity="0.25"
     inkscape:showpageshadow="false"
     inkscape:pageopacity="0.0"
     inkscape:pagecheckerboard="0"
     inkscape:deskcolor="#d1d1d1"
     inkscape:zoom="2.8600332"
     inkscape:cx="205.06755"
     inkscape:cy="205.06755"
     inkscape:window-width="2560"
     inkscape:window-height="1369"
     inkscape:window-x="-8"
     inkscape:window-y="-8"
     inkscape:window-maximized="1"
     inkscape:current-layer="svg1"
     showborder="false"
     borderlayer="false" /><defs
     id="defs1" /><g
     id="layer1"
     transform="translate(-15.195675,-13.229176)"><circle
       style="fill:#1e293b;fill-opacity:1;stroke-width:0.264583"
       id="path1"
       cx="69.453133"
       cy="67.486633"
       r="54.257458" /><path
       style="fill:#e1e8f0;fill-opacity:1"
       d="m 47.757311,104.08104 v -0.0786 l 5.55775,-16.598153 -0.11804,-0.11804 -0.11805,-0.11805 -8.23208,2.636178 v -9.117288 c 3.6978,-1.545039 7.39444,-3.092838 11.09515,-4.630897 0.87029,-3.06827 1.63009,-6.167681 2.42715,-9.255941 l -0.0804,-0.324279 -0.0804,-0.32428 -9.18753,2.84724 -0.0992,-0.09917 -0.0992,-0.09917 -1.59433,-11.254325 v -0.646364 -0.646363 c 5.44662,-2.10418 10.24593,-4.072552 16.39141,-6.672593 l 0.14504,-8.494468 c 10.56006,-4.072406 19.41306,-5.906013 30.29479,-10.272947 -0.027,12.417864 -1.02846,13.561105 -1.06646,26.647241 l -0.38878,0.552656 c -5.27134,2.963929 -10.40845,6.166842 -15.69365,9.105549 l -2.29801,-6.409128 -0.36349,-0.144063 -0.36349,-0.144063 c -2.88651,0.929778 -5.76556,1.882277 -8.66573,2.768629 v 12.129795 c 9.24846,-2.267588 18.25094,-5.40556 27.35206,-8.190298 l 0.10424,0.104243 0.10425,0.104242 c -2.63578,13.589984 -0.0507,0.604145 -3.63523,20.020354 -6.0408,0.61437 -12.08508,1.19425 -18.12831,1.78416 l -0.13277,-0.13277 -0.13277,-0.13277 3.43018,-8.397786 -0.20521,-0.0741 -0.20521,-0.0741 c -2.98016,1.046596 -5.94519,2.133206 -8.88755,3.281486 0.9872,14.065548 0.79009,15.832177 1.42708,20.546923 h -18.55326 z"
       id="path2" /></g></svg>
