<svg xmlns="http://www.w3.org/2000/svg" width="14.17" height="14.17" viewBox="0 0 14.17 14.17">
  <g>
    <path d="M11.68,2.76s.41-1,.76-.87a9.19,9.19,0,0,1,1.73.79v-2A.69.69,0,0,0,13.48,0H9.37A4.62,4.62,0,0,1,11.68,2.76Z" style="fill: #e33329"/>
    <path d="M6.34,7.93c3.05.91,5.77-3,3.11-5C5.32-.31,2.36,6.7,6.32,7.92L5.93,7.8Z" style="fill: #e33329"/>
    <path d="M2.53,13.3A5.65,5.65,0,0,1,0,10.91v2.56a.7.7,0,0,0,.69.7H4.82A8.59,8.59,0,0,1,2.53,13.3Z" style="fill: #e33329"/>
    <path d="M2.15,9.41c.24.77.05,1.6,2.23,2.31a2.66,2.66,0,0,0,3.51-1.53c0-.44-1.34.39-3.65-.67-2.12-1-3.55-3.8-1.53-7.3A6.18,6.18,0,0,1,4.71,0h-4A.69.69,0,0,0,0,.7V8.25A4.87,4.87,0,0,1,2.15,9.41Z" style="fill: #e33329"/>
    <path d="M11.5,9c-1.26,2.33-2.37,4.51-4.08,5.18h6.06a.69.69,0,0,0,.69-.69h0V3.57C13.74,4.51,12.71,6.75,11.5,9Z" style="fill: #e33329"/>
  </g>
</svg>
