<?xml version="1.0" encoding="UTF-8" standalone="no"?>
<!-- Created with Inkscape (http://www.inkscape.org/) -->

<svg
   width="125.00001"
   height="125.00001"
   viewBox="0 0 33.072919 33.072919"
   version="1.1"
   id="svg1"
   xml:space="preserve"
   xmlns="http://www.w3.org/2000/svg"
   xmlns:svg="http://www.w3.org/2000/svg"><defs
     id="defs1"><rect
       x="174.32433"
       y="60.135136"
       width="480.4054"
       height="364.18918"
       id="rect1" /></defs><g
     id="layer1"
     transform="translate(-46.65962,-29.676245)"><circle
       style="fill:#eee1d1;fill-opacity:1"
       id="path2"
       cx="63.196079"
       cy="46.212704"
       r="16.536459" /><g
       id="g1"
       transform="matrix(0.51812465,0,0,0.51812465,28.224893,39.736157)"><g
         id="g10"
         style="fill:#272727;fill-opacity:1"><path
           d="m 82.5367,1.77184 0.1962,0.03428 c 1.5797,0.27614 2.072,0.54562 2.072,1.69399 v 7.25869 c 0,0.7809 -0.3047,1.0856 -1.0855,1.0856 h -9.565 c -0.8085,0 -1.1236,-0.3047 -1.1236,-1.0856 V 3.50011 c 0,-1.2055 0.6103,-1.42832 2.1101,-1.69399 L 75.337,1.77184 V 0.540621 H 66.848 V 1.77184 l 0.1962,0.03428 c 1.5797,0.27614 2.072,0.54562 2.072,1.69399 V 21.5303 c 0,1.1484 -0.4923,1.4178 -2.072,1.6949 l -0.1962,0.0343 v 1.2303 h 8.489 v -1.2303 l -0.1961,-0.0343 c -1.4998,-0.2628 -2.1101,-0.4894 -2.1101,-1.6949 v -7.1416 c 0,-0.7447 0.3152,-1.0475 1.0855,-1.0475 h 9.645 c 0.7351,0 1.0474,0.3133 1.0474,1.0475 v 7.1416 c 0,1.1484 -0.4923,1.4178 -2.072,1.6949 l -0.1962,0.0343 v 1.2303 h 8.4509 v -1.2303 l -0.1961,-0.0343 c -1.5797,-0.2771 -2.072,-0.5465 -2.072,-1.6949 V 3.4982 c 0,-1.14837 0.4923,-1.41785 2.072,-1.69399 L 90.9914,1.76993 V 0.538727 h -8.4509 z"
           fill="#000000"
           id="path1-6"
           style="fill:#272727;fill-opacity:1" /><g
           style="mix-blend-mode:multiply;fill:#272727;fill-opacity:1"
           id="g7"
           transform="translate(44)"><path
             d="m 19.582,13.9878 h -8.5699 v -1.4807 h 10.1477 v 11.4923 h -1.3654 c -0.1321,-1.4195 -0.2651,-2.843 -0.399,-4.2707 l -0.1105,-0.0124 c -0.3085,0.4761 -0.5903,0.9808 -0.9303,1.4388 -1.8187,2.4558 -4.2402,3.7755 -7.3225,3.8412 C 8.96197,25.0401 6.97851,24.6964 5.1693,23.6451 3.07443,22.4254 1.71372,20.5809 0.944329,18.3232 -0.21642,14.9124 -0.269752,11.4378 0.579623,7.9498 1.06144,5.9711 1.9632,4.21141 3.44389,2.77738 4.65606,1.60425 6.06152,0.752961 7.71266,0.375884 10.0275,-0.151643 12.3404,-0.176398 14.6057,0.640602 17.4405,1.66423 19.283,3.69721 20.3981,6.43482 c 0.2485,0.60847 0.4094,1.25217 0.6008,1.88349 0.0395,0.17767 0.0674,0.35769 0.0838,0.53895 H 19.1288 C 18.8117,8.00694 18.5631,7.15947 18.1899,6.37103 17.0339,3.92765 15.2009,2.22128 12.4899,1.72136 8.36874,0.959592 4.71415,2.71834 3.07634,6.85475 1.98415,9.61618 1.90797,12.4633 2.30885,15.3542 c 0.24281,1.7521 0.77225,3.4004 1.83492,4.8449 1.45022,1.972 3.41273,3.0118 5.84278,3.2299 2.45575,0.219 4.67445,-0.3733 6.55315,-1.9797 1.5931,-1.3616 2.4758,-3.1556 2.81,-5.2076 0.1209,-0.7104 0.1533,-1.435 0.2323,-2.2539 z"
             fill="#000000"
             id="path7"
             style="fill:#272727;fill-opacity:1" /></g></g></g></g></svg>
