<svg width="36" height="36" viewBox="0 0 36 36" xmlns="http://www.w3.org/2000/svg"><g fill="none" fill-rule="evenodd"><rect fill="#2C2C2C" width="36" height="36" rx="18"/><path d="M23.456 26.571c.513 0 1.01-.033 1.49-.1.48-.068.83-.135 1.054-.203V15.727c0-1.976-.68-3.52-2.042-4.631-1.361-1.112-3.302-1.667-5.824-1.667-1.406 0-2.684.168-3.833.505-1.149.337-2.103.774-2.862 1.313a4.074 4.074 0 00-1.054 1.044c-.257.382-.385.876-.385 1.482v10.104c0 .561.073 1.016.218 1.364.145.348.351.623.619.825.268.202.597.337.987.404.39.068.832.101 1.322.101.514 0 1.01-.033 1.49-.1.48-.068.831-.135 1.054-.203V14.582a3.324 3.324 0 011.122-.506 5.272 5.272 0 011.322-.168c.67 0 1.2.163 1.59.488.39.326.586.837.586 1.533v7.948c0 .561.072 1.016.217 1.364.145.348.352.623.62.825.267.202.596.337.987.404.39.068.831.101 1.322.101z" fill="#FFF" fill-rule="nonzero"/></g></svg>
