<svg version="1.1" id="Layer_1" xmlns="http://www.w3.org/2000/svg" xmlns:xlink="http://www.w3.org/1999/xlink" x="0px" y="0px"
	 viewBox="0 0 36 36" style="enable-background:new 0 0 36 36;" xml:space="preserve">
<style type="text/css">
	.st0{fill-rule:evenodd;clip-rule:evenodd;fill:url(#SVGID_1_);}
	.st1{fill-rule:evenodd;clip-rule:evenodd;fill:url(#SVGID_2_);}
</style>
<g>
	<linearGradient id="SVGID_1_" gradientUnits="userSpaceOnUse" x1="2.4089" y1="8.9985" x2="33.5911" y2="27.0015">
		<stop  offset="0" style="stop-color:#9188FE"/>
		<stop  offset="1" style="stop-color:#3ABBDA"/>
	</linearGradient>
	<path class="st0" d="M18,0L18,0c9.9,0,18,8.1,18,18l0,0c0,9.9-8.1,18-18,18l0,0C8.1,36,0,27.9,0,18l0,0C0,8.1,8.1,0,18,0z"/>
	<linearGradient id="SVGID_2_" gradientUnits="userSpaceOnUse" x1="0" y1="-9.094947e-13" x2="0" y2="-9.094947e-13">
		<stop  offset="0" style="stop-color:#9188FE"/>
		<stop  offset="1" style="stop-color:#3ABBDA"/>
	</linearGradient>
<path d="M23.456 26.571c.513 0 1.01-.033 1.49-.1.48-.068.83-.135 1.054-.203V15.727c0-1.976-.68-3.52-2.042-4.631-1.361-1.112-3.302-1.667-5.824-1.667-1.406 0-2.684.168-3.833.505-1.149.337-2.103.774-2.862 1.313a4.074 4.074 0 00-1.054 1.044c-.257.382-.385.876-.385 1.482v10.104c0 .561.073 1.016.218 1.364.145.348.351.623.619.825.268.202.597.337.987.404.39.068.832.101 1.322.101.514 0 1.01-.033 1.49-.1.48-.068.831-.135 1.054-.203V14.582a3.324 3.324 0 011.122-.506 5.272 5.272 0 011.322-.168c.67 0 1.2.163 1.59.488.39.326.586.837.586 1.533v7.948c0 .561.072 1.016.217 1.364.145.348.352.623.62.825.267.202.596.337.987.404.39.068.831.101 1.322.101z" fill="#ffffff" fill-rule="nonzero"/>
</g>
</svg>
