<svg xmlns="http://www.w3.org/2000/svg" width="17.01" height="17.01" viewBox="0 0 17.01 17.01">
  <g>
    <path d="M7.72,1a4.15,4.15,0,0,1,.61,0A5.63,5.63,0,0,1,9,1a7.55,7.55,0,0,1,7,7.22,4.42,4.42,0,0,0,0,.63A7.54,7.54,0,0,1,9.18,16a2.13,2.13,0,0,1-.44,0,3.11,3.11,0,0,0-.53,0A7.54,7.54,0,0,1,1,8.81C1,8.54,1,8.27,1,8a7,7,0,0,1,.55-2.34A7.53,7.53,0,0,1,7.72,1M8,2.31a6.18,6.18,0,1,0,3,.5,6.32,6.32,0,0,0-3-.5M5,4.73q1,0,2,0L8.49,8.58h0L9.86,4.72h2L8.5,13c-.7,0-1.4,0-2.1,0l.9-2.08.07-.18a.68.68,0,0,0-.07-.2Z" style="fill: #97c23f"/>
    <rect width="17.01" height="17.01" style="fill: none"/>
  </g>
</svg>
